<svg xmlns="http://www.w3.org/2000/svg" color-rendering="auto" color-interpolation="auto" text-rendering="auto" shape-rendering="auto" font-family="'Dialog'" font-size="12" image-rendering="auto" style="fill:black;stroke:black"><path d="M188.3 336.7Q188.3 353.4 172.6 366.8 156.9 380.1 138.2 380.1 125.4 380.1 118.3 374.1 111.2 368 111.2 357.3 111.2 340.6 126.9 327.2 142.6 313.9 161.3 313.9 171.6 313.9 178.3 318L178.3 241.3 91 264.7 91 362.5Q91 379.3 75.3 392.6 59.6 406 40.9 406 28.1 406 21 399.9 13.8 393.9 13.8 383.3 13.8 366.6 29.5 353.2 45.1 339.8 64 339.8 74.1 339.8 80.9 343.8L80.9 194.1 188.3 165.2 188.3 336.7ZM178.3 214.2L178.3 194.9 91 218.5 91 237.5 178.3 214.2Z"/></svg>